<svg width="64" height="64" viewBox="0 0 64 64" fill="none" xmlns="http://www.w3.org/2000/svg">
<path d="M28 58C28 60.2 29.8 62 32 62C34.2 62 36 60.2 36 58H28Z" fill="#616466"/>
<path d="M24.9 48H39C39.8 43.7 42.5 39.5 45.3 35.1C48.6 30 52 24.7 52 19.6C52 9.9 43 2 32 2C21 2 12 9.9 12 19.6C12 24.7 15.4 30 18.6 35.1C21.4 39.5 24.1 43.7 24.9 48" fill="#FFCE31"/>
<path d="M26.4001 33.6C26.5001 34.2 26.7001 34.8 26.8001 35.4C27.1001 36.5 27.3001 37.5 27.6001 38.6C28.5001 42.4 29.3001 45.6 30.0001 48.1H30.6001C30.1001 45.6 29.4001 42.3 28.5001 38.5C28.3001 37.5 28.0001 36.4 27.8001 35.3C27.7001 34.8 27.6001 34.2 27.4001 33.7C28.2001 33.5 30.1001 32.9 32.0001 30.8C33.9001 32.9 35.8001 33.5 36.6001 33.7C36.5001 34.3 36.4001 34.8 36.2001 35.3C36.0001 36.4 35.7001 37.5 35.5001 38.5C34.6001 42.3 33.9001 45.6 33.4001 48.1H34.0001C34.6001 45.6 35.5001 42.4 36.4001 38.6C36.6001 37.6 36.9001 36.5 37.2001 35.4C37.3001 34.8 37.5001 34.2 37.6001 33.6C38.4001 33.5 39.1001 33.3 39.6001 32.8C40.2001 32.2 40.5001 31.5 40.3001 30.7C40.2001 30.3 40.0001 29.8 39.4001 29.7C39.1001 29.6 38.9001 29.6 38.6001 29.7C38.3001 29.8 38.1001 30 38.0001 30.1C37.5001 30.7 37.3001 31.3 37.1001 31.9L36.8001 32.8C36.8001 32.8 36.0001 32.9 34.1001 31.6C33.1001 30.9 32.8001 30.4 32.5001 30.1C32.8001 29.7 33.1001 29.4 33.4001 28.9C33.5001 28.6 33.6001 28.4 33.7001 28C33.7001 27.7 33.7001 27.3 33.5001 27C33.3001 26.7 33.1001 26.4 32.6001 26.2C32.4001 26.1 32.2001 26.1 32.0001 26.1C31.8001 26.1 31.6001 26.1 31.4001 26.2C31.0001 26.4 30.7001 26.7 30.5001 27C30.3001 27.3 30.3001 27.7 30.3001 28C30.3001 28.3 30.4001 28.6 30.6001 28.9C30.8001 29.4 31.1001 29.8 31.5001 30.1C31.2001 30.4 30.9001 30.9 29.9001 31.6C28.1001 32.8 27.2001 32.8 27.2001 32.8L26.9001 31.9C26.7001 31.3 26.5001 30.7 26.0001 30.1C25.9001 30 25.7001 29.8 25.4001 29.7C25.1001 29.6 24.8001 29.6 24.6001 29.7C24.0001 29.9 23.8001 30.4 23.7001 30.7C23.6001 31.5 23.9001 32.2 24.4001 32.8C25.0001 33.3 25.7001 33.5 26.4001 33.6M38.0001 32.1C38.2001 31.6 38.4001 31 38.8001 30.7C38.9001 30.6 39.0001 30.6 39.0001 30.6H39.2001C39.3001 30.6 39.4001 30.7 39.5001 31C39.6001 31.4 39.4001 32 39.0001 32.3C38.7001 32.5 38.3001 32.7 37.9001 32.8C37.9001 32.5 37.9001 32.3 38.0001 32.1M31.4001 27.3C31.6001 27.1 31.8001 26.9 32.0001 26.9C32.2001 26.9 32.4001 27 32.6001 27.3C32.8001 27.6 32.7001 28 32.5001 28.4C32.4001 28.7 32.2001 29 32.0001 29.2C31.8001 28.9 31.6001 28.7 31.5001 28.4C31.3001 28.1 31.2001 27.7 31.4001 27.3ZM24.6001 30.8C24.6001 30.6 24.7001 30.5 24.9001 30.4H25.1001C25.1001 30.4 25.2001 30.5 25.3001 30.5C25.6001 30.8 25.9001 31.4 26.1001 31.9C26.2001 32.1 26.2001 32.3 26.3001 32.5C25.9001 32.4 25.5001 32.3 25.2001 32C24.8001 31.8 24.6001 31.3 24.6001 30.8" fill="#C79127"/>
<path d="M24.8999 50H39.1999V51.8H24.8999V50ZM25.8999 53.6H38.1999V55.4H25.8999V53.6Z" fill="#94989B"/>
<path d="M25.8999 51.8H38.1999V53.6H25.8999V51.8Z" fill="#616466"/>
<path d="M39.1999 50L25.8999 53.6V55.5L39.1999 51.8V50ZM26.8999 57.3H37.1999V59.1H26.8999V57.3Z" fill="#94989B"/>
<path d="M26.8999 55.5H37.1999V57.3H26.8999V55.5Z" fill="#616466"/>
<path d="M38.1999 53.6L26.8999 57.3V59.2L38.1999 55.5V53.6Z" fill="#94989B"/>
</svg>
